<svg width="1929" height="1929" viewBox="0 0 1929 1929" fill="none" xmlns="http://www.w3.org/2000/svg">
<path d="M1791.23 477.123L1791.45 477.638L1791.72 478.126C1836.12 558.047 1856.37 625.733 1858.09 685.07C1859.8 744.22 1843.12 795.857 1812.28 843.89C1781.32 892.117 1736.04 936.773 1680.53 981.552C1625.01 1026.33 1559.83 1070.79 1489.3 1118.89C1467.39 1133.81 1444.88 1149.16 1421.89 1165.03L1421.88 1165.04C1286.77 1258.4 1191.51 1360.38 1115.5 1441.76L1115.28 1441.99L1115.28 1441.99C1076.18 1483.86 1042.42 1519.91 1010.29 1547.6C978.188 1575.27 948.549 1593.82 917.979 1601.46L916.255 1601.89L914.769 1602.87C886.777 1621.21 853.393 1632.63 815.083 1636.31L815.075 1636.31L815.067 1636.31C740.957 1643.55 666.54 1647.2 592.077 1647.23C480.852 1647.23 365.475 1639.11 228.856 1621.73C191.09 1616.89 159.878 1602.33 135.44 1578.92C110.935 1555.45 92.6988 1522.55 81.8768 1480.26L81.8757 1480.25C60.0763 1395.2 71.5733 1280.17 105.618 1169.67C139.641 1059.24 195.584 955.3 260.731 892.136L261.194 891.687L261.598 891.185C303.716 838.915 346.193 807.235 378.243 783.506C378.243 783.505 378.243 783.505 378.244 783.505L378.268 783.487C387.071 776.971 396.35 770.102 403.858 763.871C407.619 760.749 411.119 757.638 413.98 754.681C416.657 751.914 419.52 748.538 421.157 744.869C455.5 668.017 522.832 612.731 587.614 574.989C652.255 537.329 713.206 517.806 733.133 511.98L733.139 511.978C778.893 498.572 800.324 476.551 823.501 452.736L823.64 452.593L823.642 452.591L824.243 451.974C848.623 426.939 873.426 401.47 923.751 383.018C974.972 364.238 1053.38 352.508 1185.14 358.042L1185.36 358.052H1185.58C1189.64 358.052 1194.21 356.752 1198.13 355.407C1202.37 353.952 1207.17 351.962 1212.1 349.748C1221.98 345.318 1233.17 339.654 1242.89 334.738C1279.5 316.219 1323.39 294.12 1371.32 287.111L1371.32 287.11C1395.56 283.564 1419.73 281.766 1443.22 281.766C1637.97 281.766 1759.38 401.931 1791.23 477.123ZM460.801 751.751L456.843 753.296L455.106 757.085C455.104 757.089 455.102 757.094 455.099 757.098C455.076 757.141 455.049 757.191 454.999 757.283C454.955 757.362 454.888 757.484 454.82 757.612C454.595 758.03 454.201 758.778 453.831 759.742C450.404 767.28 444.677 774.363 436.947 781.95L412.825 805.631L446.119 799.785C467.559 796.021 489.252 793.915 511.245 793.915C666.974 793.915 822.345 889.297 915.875 1044.28L915.879 1044.29L915.883 1044.29C950.275 1101.11 976.697 1162.38 994.407 1226.39L998.87 1242.52L1011.45 1231.48C1213.76 1054.02 1393.58 952.799 1528.96 876.753L1529.23 876.6C1584.75 845.421 1632.06 818.85 1670.3 793.52C1708.58 768.166 1738.58 743.546 1758.97 715.963C1779.59 688.064 1790.14 657.456 1790.06 620.841C1789.97 584.598 1779.47 542.941 1759 492.638L1749.27 496.597L1759 492.638C1735.06 433.841 1627.1 317.49 1443.25 317.49C1425.99 317.49 1408.35 318.858 1390.87 320.875L1390.77 341.725L1391.74 341.845L1392.2 341.904L1392.67 341.92C1446.39 343.79 1500.12 373.917 1538.18 411.664C1557.14 430.458 1571.76 450.714 1580.4 469.547C1589.15 488.632 1591.15 504.846 1587.3 516.513L1587.09 517.158L1586.98 517.707C1585.73 515.976 1584.34 513.976 1582.78 511.688C1581.22 509.411 1579.54 506.918 1577.73 504.225C1563.46 483.038 1540.89 449.515 1504.41 411.941L1503.84 411.355L1503.18 410.864C1448.97 370.097 1405.2 355.823 1366.18 353.43C1337.85 351.693 1311.89 356.387 1287.95 360.716C1279.74 362.201 1271.76 363.644 1264.01 364.769L1262.37 365.006L1260.89 365.734L1259.29 366.517L1259.24 366.545L1259.18 366.574C1243.41 374.548 1229.86 381.39 1217.52 386.283C1205.28 391.136 1195.01 393.739 1185.84 393.776C1161.27 392.813 1140.69 392.36 1121.5 392.36C979.565 392.36 920.806 415.65 881.267 447.488L892.33 465.164C931.898 446.51 981.14 432.328 1031.44 436.383L1032.28 436.45L1033.11 436.385C1107.8 430.521 1186.18 463.782 1243.87 509.713C1272.63 532.609 1295.75 558.28 1310.46 583.078C1325.32 608.107 1330.86 630.93 1326.96 648.83L1326.82 649.485L1326.76 650.152C1326.46 653.62 1326.11 656.376 1325.75 658.541C1322.51 655.387 1318.47 650.845 1313.32 644.815C1310.89 641.96 1308.26 638.836 1305.43 635.467C1283.01 608.817 1247.71 566.851 1192.91 521.51L1192.27 520.987L1191.57 520.568C1105.21 469.399 1040.59 459.328 984.88 465.107C957.301 467.969 932.268 474.681 908.53 481.689C904.062 483.008 899.654 484.333 895.289 485.644C876.229 491.372 857.981 496.855 839.047 500.581L837.638 500.858L836.356 501.504C826.944 506.238 820.423 508.683 815.282 510.236L813.453 510.788L811.937 511.949C794.645 525.182 773.252 537.425 743.192 546.225C727.502 550.801 685.489 564.215 637.345 588.482C589.292 612.703 534.47 648.064 493.78 696.814L507.387 712.459C563.63 677.477 650.046 642.519 738.809 649.658L739.642 649.725L740.476 649.66C840.53 641.777 945.152 686.266 1021.96 747.417C1060.28 777.924 1091.19 812.203 1110.92 845.452C1130.78 878.931 1138.57 910.044 1133.13 934.92L1132.98 935.581L1132.92 936.255C1132.21 944.528 1131.29 950.029 1130.32 953.486C1129.3 952.686 1128.1 951.649 1126.71 950.327C1122.13 945.999 1116.43 939.612 1109.19 931.127C1105.95 927.33 1102.46 923.179 1098.7 918.704C1069.02 883.439 1022.48 828.12 950.186 768.303L949.552 767.778L948.844 767.359C835.03 699.93 750.211 686.836 677.301 694.414C641.12 698.174 608.234 706.989 576.858 716.252C571.029 717.973 565.268 719.704 559.551 721.421C534.26 729.02 509.865 736.349 484.568 741.313L483.177 741.586L481.908 742.219C473.578 746.369 466.611 749.484 460.801 751.751ZM1584.43 527.053C1584.43 527.051 1584.44 527.03 1584.47 526.993C1584.44 527.037 1584.43 527.056 1584.43 527.053ZM1324.18 664.567C1324.18 664.568 1324.18 664.556 1324.2 664.532C1324.19 664.555 1324.18 664.566 1324.18 664.567ZM881.682 1064.57L881.681 1064.57C796.015 922.629 654.324 833.438 511.185 833.438C440.862 833.438 373.455 855.2 316.356 896.461C248.785 945.277 189.398 1047.51 152.154 1156.75C114.877 1266.08 98.6855 1385.65 120.428 1470.49C128.835 1503.3 142.161 1529.5 161.236 1548.49C180.434 1567.61 204.776 1578.74 233.886 1582.46L233.89 1582.46C457.505 1610.96 622.172 1615.07 811.213 1596.93L811.218 1596.93C874.554 1590.83 921.257 1560.2 948.644 1506.01L948.645 1506.01C975.966 1451.92 981.971 1379.43 970.036 1302.12C958.071 1224.61 927.935 1141.22 881.682 1064.57ZM1001.07 1480.62L1018.55 1491.07C1042.54 1467.08 1066.04 1442.61 1089.03 1417.66L1089.05 1417.64C1166.94 1334.26 1263.22 1231.2 1401.45 1135.72C1424.48 1119.85 1447.04 1104.43 1469.03 1089.43C1562.69 1025.55 1644.53 969.626 1705.34 912.718C1766.26 855.702 1807.24 796.645 1817.62 726.109L1798.24 719.157C1777.23 753.989 1744.35 784.411 1701.36 814.63C1658.35 844.861 1606.01 874.364 1546.56 907.753L1546.56 907.753C1408.06 985.555 1220.82 1091.12 1011.49 1279.32L1007.21 1283.17L1008.15 1288.85C1019.87 1359.23 1017.68 1425.4 1001.07 1480.62Z" stroke="#699BF7" stroke-width="21"/>
</svg>
