<svg width="1653" height="1491" viewBox="0 0 1653 1491" fill="none" xmlns="http://www.w3.org/2000/svg">
<path d="M146.367 1147.38H750.144M1354 1147.38H1555.26M869.5 182.875C922.792 182.875 973.902 204.045 1011.58 241.728C1049.27 279.411 1070.44 330.521 1070.44 383.812C1070.44 437.104 1049.27 488.214 1011.58 525.897C973.902 563.58 922.792 584.75 869.5 584.75C816.209 584.75 765.099 563.58 727.416 525.897C689.733 488.214 668.563 437.104 668.563 383.812C668.563 330.521 689.733 279.411 727.416 241.728C765.099 204.045 816.209 182.875 869.5 182.875ZM869.5 182.875C882.923 142.688 941.838 54.275 1070.44 22.125" stroke="white" stroke-width="44" stroke-linecap="round" stroke-linejoin="round"/>
<path d="M667.357 425.205C189.207 605.969 -3.61312 689.398 25.6434 749.197C184.706 824.348 476.949 805.058 775.944 793.805C858.248 790.751 939.427 831.581 958.074 912.519C971.255 969.666 974.792 1019.58 1000.75 1051.25C1015.62 1069.41 1040.94 1075.52 1063.61 1069.65C1124.69 1053.58 1150.01 985.339 1180.15 865.5C1186.02 842.191 1194.38 817.034 1217.04 809.237C1318.31 774.033 1630.09 851.514 1630.09 708.768C1625.03 560.075 1570.93 467.402 1397.08 329.559C1341.34 285.065 1270.78 263.404 1199.68 268.956C1125.25 274.904 1090.61 284.63 1068.51 303.678" stroke="white" stroke-width="44" stroke-linecap="round" stroke-linejoin="round"/>
<path d="M23.7947 744.938L102.16 1090.95C142.348 1272.12 162.442 1362.7 228.51 1415.83C294.658 1468.88 387.411 1468.88 572.917 1468.88H1262.37C1400.78 1468.88 1469.98 1468.88 1515.96 1427.24C1561.93 1385.61 1568.68 1316.73 1582.27 1178.88L1629.69 716.083" stroke="white" stroke-width="44" stroke-linecap="round" stroke-linejoin="round"/>
</svg>
