<svg width="1645" height="1645" viewBox="0 0 1645 1645" fill="none" xmlns="http://www.w3.org/2000/svg">
<path d="M1344.94 822.5C1344.94 678.548 1192.23 580.41 1063.63 636.994M139.313 822.5C139.313 718.575 217.196 632.895 317.343 621.482C251.918 473.592 390.565 307.618 544.322 341.616M544.322 341.616C582.581 125.408 901.67 125.408 940.008 341.616C1097.22 306.814 1230.24 475.521 1167.47 620.196M544.322 341.616C591.332 352.119 633.006 379.159 661.75 417.812M1224.38 581.375L1626.25 99.125M1144 340.25L1304.75 18.75M172.347 822.5H1311.98C1440.74 822.5 1488.01 852.239 1455.86 981.803C1399.11 1210.31 1238.6 1267.05 1090.23 1416.15C1054.22 1452.32 1110.32 1505.93 1110.32 1545.79C1110.32 1620.86 1039.03 1626.25 982.125 1626.25H502.286C445.381 1626.25 374.008 1620.86 374.088 1545.87C374.088 1506.81 428.502 1450.71 394.182 1416.15C245.81 1267.05 85.3007 1210.31 28.5559 981.803C-3.59408 852.319 43.586 822.5 172.347 822.5Z" stroke="white" stroke-width="37.5" stroke-linecap="round" stroke-linejoin="round"/>
</svg>
