<svg width="1990" height="1990" viewBox="0 0 1990 1990" fill="none" xmlns="http://www.w3.org/2000/svg">
<path d="M1878.5 533.17L1878.37 533.074C1862.05 520.697 1818.47 497.683 1799.75 488.057L1799.68 488.019L1799.61 487.98C1557.89 358.81 1286.71 290.344 1016.27 290.344C962.538 290.344 920.457 292.938 892.462 294.707L892.454 294.708L892.446 294.708C890.849 294.807 889.292 294.904 887.78 294.998C878.091 295.604 870.213 296.096 864.872 296.096C805.69 296.096 776.221 315.502 752.595 333.946C752.257 334.211 751.866 334.527 751.432 334.877C749.727 336.253 747.366 338.158 745.035 339.57L744.735 339.752L744.424 339.913C742.57 340.873 740.025 341.81 738.525 342.363C738.117 342.513 737.786 342.635 737.568 342.721L737.533 342.735L737.499 342.748C722.354 348.591 707.936 355.868 695.077 368.251C682.257 380.596 670.398 398.592 661.385 426.693C658.926 434.389 653.269 440.985 647.261 446.267C641.079 451.703 633.562 456.583 625.933 460.655C618.275 464.742 610.224 468.165 602.813 470.587C595.6 472.945 588.245 474.605 582.199 474.605C542.574 474.605 512.776 496.449 483.817 518.042C473.879 525.472 463.227 533.405 452.145 540.351L452.132 540.359L452.12 540.367C434.451 551.372 422.952 561.386 414.907 571.351C406.92 581.245 401.969 591.546 397.957 603.685L395.341 611.6L387.038 610.846C383.457 610.521 379.863 610.349 376.267 610.33C361.905 610.334 349.662 613.708 339.429 620.022L337.99 620.909L336.345 621.301C319.756 625.245 306.895 632.554 296.251 644.178C285.429 655.997 276.419 672.805 268.573 696.476L264.989 707.291L254.503 702.838C247.302 699.78 239.557 698.213 231.735 698.232L231.723 698.232H231.71C202.172 698.232 180.527 718.885 158.15 740.974L158.139 740.985L158.128 740.996C157.684 741.432 157.235 741.872 156.783 742.316C150.656 748.335 143.876 754.996 138.498 759.256C135.195 761.891 131.65 763.219 126.952 764.979L126.383 765.192L126.365 765.198L126.348 765.205C118.776 768.014 105.166 773.154 93.6478 784.919C82.4788 796.326 72.4866 814.802 73.797 845.951C74.6189 864.629 74.6067 897.045 74.3972 924.672C74.292 938.539 74.1363 951.282 74.0068 960.615C73.9421 965.283 73.884 969.098 73.842 971.776C73.8255 972.825 73.8116 973.7 73.8007 974.382L73.7924 974.902L73.7814 975.605C73.7771 975.88 73.7756 975.972 73.7756 975.94C73.7756 994.389 83.8514 1009.36 96.2606 1025.3C97.2842 1026.61 98.3323 1027.95 99.392 1029.29C104.439 1035.71 109.748 1042.46 113.905 1049.18C119.008 1057.42 123.212 1066.87 123.246 1077.52L1878.5 533.17ZM1878.5 533.17L1878.63 533.262M1878.5 533.17L1878.63 533.262M1878.63 533.262L1880.2 534.381C1880.21 534.387 1880.22 534.392 1880.22 534.397C1889.31 540.938 1895.67 547.244 1900.37 554.442C1905.06 561.649 1908.45 570.292 1910.86 581.961C1915.82 605.906 1916.34 640.355 1917.13 697.167C1918.09 769.871 1915.08 941.316 1912.31 1092.94L1912.31 1092.94C1910.51 1193.84 1908.82 1289.27 1908.82 1330.81C1908.82 1352.18 1908.69 1378.06 1899.51 1399.75C1895.03 1410.34 1888.47 1419.69 1878.8 1426.93C1869.13 1434.18 1855.77 1439.75 1837.01 1441.89L1838.2 1452.33L1837.01 1441.89L1836.39 1441.96C1834.36 1442.19 1831.85 1442.48 1828.11 1443.11C1828.08 1443.11 1828.05 1443.12 1828.02 1443.12L1824.01 1443.73C1780.56 1450.29 1415.47 1505.38 1359.75 1514.44C1332.28 1518.87 1315.86 1520.59 1302.45 1520.59C1287.95 1520.59 1273.09 1514.95 1258.07 1508.56C1256.68 1507.97 1255.27 1507.36 1253.86 1506.76C1248 1504.24 1242.07 1501.68 1236.59 1499.74C1229.9 1497.37 1222.48 1495.37 1215.34 1495.83C1204.23 1496.55 1196.5 1500.32 1190.83 1506.71C1188.26 1509.61 1186.39 1512.74 1184.89 1515.49C1184.24 1516.69 1183.6 1517.93 1183.01 1519.07L1182.75 1519.57C1182.06 1520.89 1181.42 1522.13 1180.73 1523.35C1178.11 1528.05 1175.05 1532.34 1169.52 1536.15C1163.84 1540.06 1154.82 1543.96 1139.57 1546.4C1117.23 1549.97 1015.31 1565.74 918.049 1580.62C869.422 1588.06 821.979 1595.27 786.253 1600.62C768.387 1603.3 753.466 1605.51 742.797 1607.05C737.459 1607.82 733.211 1608.42 730.2 1608.82C728.69 1609.03 727.529 1609.18 726.714 1609.27C726.299 1609.32 726.054 1609.35 725.936 1609.36C713.703 1609.22 703.78 1600.93 690.837 1589.35L690.452 1589C684.56 1583.73 677.88 1577.74 670.675 1573.49C663.051 1568.98 654 1565.88 643.549 1567.51L643.543 1567.51C615.374 1571.91 600.038 1589.25 589.306 1604.29C587.029 1607.48 585.11 1610.33 583.351 1612.94C580.672 1616.91 578.368 1620.33 575.746 1623.56C571.67 1628.6 568.794 1630.49 566.342 1631.04L566.33 1631.04C553.537 1633.93 460.833 1648.06 368.411 1661.85C276.363 1675.59 185.772 1688.81 177.623 1689.89C175.66 1690.14 173.056 1690.87 171.248 1691.39C169.201 1691.99 166.994 1692.68 165.3 1693.2L165.116 1693.26L165.09 1693.27L165.063 1693.28C155.348 1696.37 144.699 1699.66 132.584 1699.66C103.412 1699.66 73.6592 1678.42 73.7134 1635.95V1635.94M1878.63 533.262L73.7134 1635.94M73.7134 1635.94C73.7134 1630.09 73.4228 1622.8 73.1148 1615.16C72.1472 1589.17 72.964 1560.19 78.0207 1537.52C80.5564 1526.15 83.9978 1517.14 88.2388 1510.96C92.331 1505 96.7091 1502.27 101.591 1501.69C105.405 1501.24 110.931 1500.19 114.815 1496.18C119.971 1490.86 119.013 1484.35 117.708 1480.64C116.484 1477.16 114.228 1473.71 112.245 1470.87C110.995 1469.07 109.461 1466.98 107.884 1464.84C106.905 1463.5 105.91 1462.15 104.957 1460.83C94.4422 1446.27 81.7045 1426.11 81.7045 1398.22C81.7045 1387.48 81.362 1336.79 81.0202 1286.3L81.0102 1284.82C80.6713 1234.76 80.3364 1185.29 80.3364 1175.19C80.3364 1136.95 90.4047 1119.44 99.1874 1109.49M73.7134 1635.94L99.1874 1109.49M1822.73 1406.09L1821.16 1395.71C1822.73 1406.09 1822.72 1406.09 1822.72 1406.09L1822.71 1406.09L1822.65 1406.1L1822.43 1406.13L1821.55 1406.27L1818.12 1406.78L1805.03 1408.76C1793.73 1410.46 1777.52 1412.91 1757.87 1415.88C1718.59 1421.82 1665.58 1429.83 1610.7 1438.16C1500.9 1454.81 1383.75 1472.67 1353.9 1477.55L1353.89 1477.55L1353.87 1477.56C1330.86 1481.26 1314.73 1483.22 1302.52 1483.22C1298.14 1483.22 1294.57 1482.81 1291.5 1482.43L1291 1482.36L1290.51 1482.25C1278.89 1479.63 1272.13 1472.14 1267.64 1464.56C1265.47 1460.9 1263.69 1457 1262.14 1453.51C1261.91 1452.99 1261.69 1452.48 1261.46 1451.98C1260.13 1448.96 1258.93 1446.25 1257.56 1443.62C1254.45 1437.63 1251.24 1433.63 1246.59 1431.27C1241.9 1428.9 1234.02 1427.34 1219.89 1430.05L1219.89 1430.05C1189.55 1435.87 1172.68 1453.43 1163.14 1469.84C1153.77 1485.97 1151.63 1500.83 1151.52 1501.59C1151.51 1501.62 1151.51 1501.63 1151.51 1501.62L1150.86 1507.55L1145.42 1510.02C1141.43 1511.83 1136.8 1512.95 1131.22 1513.86C1125.6 1514.79 1118.33 1515.62 1108.78 1516.6L1108.77 1516.6L1108.76 1516.6C1061.31 1521.35 822.862 1558 768.395 1566.52L765.665 1566.95L763.078 1565.98C751.259 1561.54 736.794 1552.75 718.767 1537.16C690.946 1513.17 662.287 1501.84 638.82 1500.86C615.53 1499.89 597.966 1508.95 589.078 1525.44L589.075 1525.44C577.768 1546.38 569.131 1560.39 560.183 1571.39C551.096 1582.56 541.968 1590.28 530.19 1598.96L528.426 1600.26L526.288 1600.75C514.948 1603.32 432.361 1615.59 350.452 1627.5C268.17 1639.46 185.359 1651.23 172.816 1652.88L172.802 1652.88C166.635 1653.68 160.299 1655.68 153.458 1657.84L153.313 1657.88L152.735 1658.07C146.691 1659.98 139.166 1662.36 132.584 1662.36C127.186 1662.36 120.782 1660.77 116.213 1654.93C112.129 1649.72 110.983 1642.87 110.983 1635.97C110.983 1630.11 110.727 1622.75 110.438 1614.45L110.429 1614.2C110.14 1605.89 109.825 1596.76 109.744 1587.76C109.663 1578.79 109.812 1569.77 110.481 1561.65C111.135 1553.72 112.34 1545.88 114.731 1539.66L116.085 1536.14L119.371 1534.29C122.415 1532.57 125.676 1531.72 128.404 1531.2C131.161 1530.68 134.108 1530.38 136.69 1530.11L136.696 1530.11C142.257 1529.55 146.895 1529.08 151.102 1527.68C154.977 1526.38 158.035 1524.41 160.378 1520.96C162.84 1517.34 165.179 1511.11 165.591 1500.1L165.591 1500.09C166.618 1473.3 156.554 1449.48 145.736 1431.95C140.362 1423.24 134.91 1416.26 130.805 1411.46C126.962 1406.97 124.352 1404.45 123.988 1404.1L123.946 1404.06L121.506 1401.62L120.989 1398.21C118.669 1382.88 117.569 1367.39 117.699 1351.88C117.699 1330.67 117.537 1309.99 117.382 1290.18C117.249 1273.17 117.121 1256.79 117.105 1241.25C117.07 1208.64 117.536 1181.05 119.767 1165.69L119.998 1164.1L120.69 1162.66C127.627 1148.19 138.972 1141.11 149.976 1135C151.473 1134.17 152.973 1133.35 154.479 1132.53C164.206 1127.22 174.161 1121.79 184.7 1112.16C200.259 1097.9 208.579 1075.33 207.143 1056.31C206.436 1046.94 203.42 1039.06 198.463 1033.42C193.64 1027.93 186.313 1023.79 175.312 1022.84L175.298 1022.84L175.285 1022.84C150.203 1020.63 135.219 1016.09 125.666 1010.97L124.017 1010.09L122.775 1008.69C114.988 999.925 110.8 988.542 111.047 976.821L111.048 976.802L1822.73 1406.09ZM1822.73 1406.09L1822.83 1406.07M1822.73 1406.09L1822.83 1406.07M111.052 976.57L111.066 975.779L111.084 974.692C111.094 974.139 111.105 973.483 111.117 972.733C111.16 970.089 111.22 966.266 111.287 961.556C111.42 952.135 111.58 939.172 111.687 924.999C111.901 896.555 111.897 863.559 111.055 844.439L111.055 844.43L111.055 844.421C110.612 833.952 111.627 825.438 114.929 818.581C118.459 811.251 123.949 807.129 129.551 804.328C132.21 802.999 135.006 801.911 137.571 800.945C138.197 800.71 138.811 800.481 139.418 800.254C141.424 799.507 143.352 798.788 145.407 797.943C150.566 795.823 155.956 793.126 161.594 788.648L161.601 788.643L161.608 788.637C168.899 782.866 176.214 775.648 183.831 768.132C187.492 764.519 191.223 760.837 195.055 757.214C200.675 751.901 206.501 746.755 212.186 742.899C217.602 739.225 224.374 735.671 231.659 735.657L231.669 735.657H231.679C237.69 735.657 243.116 738.095 247.344 742.661L247.355 742.673L247.365 742.684C253.996 749.889 263.549 756.396 271.946 756.396C275.851 756.396 280.355 755.017 285.266 749.818C290.446 744.334 296.12 734.5 301.046 717.651L301.048 717.643C311.117 683.301 321.252 668.001 333.92 661.364C339.144 658.627 344.411 657.699 347.805 657.102C348.304 657.014 348.763 656.933 349.175 656.854C352.618 656.199 354.228 655.619 355.84 654.231C362.182 648.745 370.07 647.786 376.296 647.786C381.028 647.786 386.083 648.381 390.544 648.907C390.787 648.936 391.029 648.964 391.269 648.992C396.172 649.568 400.572 650.056 404.747 650.056C409.335 650.056 412.942 649.447 415.824 648.13C418.504 646.905 421.13 644.812 423.458 640.735L423.461 640.729C427.171 634.243 429.197 628.881 430.788 623.926C431.188 622.68 431.595 621.331 432.02 619.921C433.151 616.172 434.411 611.997 436.013 608.202C441.115 596.12 450.138 585.748 471.917 572.172C484.042 564.595 494.816 556.641 505.327 548.881C509.66 545.683 513.948 542.517 518.268 539.424C532.622 529.147 547.31 519.702 563.233 515.248L566.064 514.456L568.895 515.249C571.142 515.879 573.354 516.521 575.545 517.157C591.136 521.683 605.658 525.899 624 523.074C644.705 519.886 671.661 507.294 708.909 470.927C717.608 462.433 718.34 458.477 718.373 457.428C718.409 456.301 717.984 455.117 714.537 450.278C714.432 450.131 714.325 449.981 714.215 449.827C711.313 445.766 706.584 439.147 705.998 430.022C705.378 420.369 709.378 410.197 718.234 398.525L718.558 398.097L718.925 397.705C727.063 388.991 735.671 384.277 743.562 380.841C746.133 379.721 748.842 378.652 751.302 377.68C752.402 377.246 753.453 376.832 754.42 376.441C757.764 375.088 760.662 373.81 763.328 372.297L111.052 976.57ZM111.052 976.57L111.269 966.528H121.545V977.028C121.545 977.028 123.255 882.845 121.545 843.978C120.47 818.524 129.319 815.225 142.989 810.129L111.052 976.57ZM1822.83 1406.07L1822.94 1406.05M1822.83 1406.07L1822.94 1406.05M1822.94 1406.05C1826.15 1405.5 1829.16 1405.15 1832.17 1404.81L1832.87 1404.73C1835.57 1404.42 1838.44 1404.1 1841.12 1403.63C1847.08 1402.59 1853.89 1400.57 1859.4 1394.63C1864.67 1388.95 1867.48 1381.07 1869.15 1371.33C1870.83 1361.47 1871.55 1348.32 1871.55 1330.78C1871.55 1288.24 1873.24 1193.69 1875.12 1088.72C1877.18 973.027 1879.47 844.664 1879.98 759.279L1879.98 759.142L1879.98 759.005C1879.52 736.077 1877 708.03 1873.75 684.651C1872.12 672.962 1870.28 662.261 1868.38 653.848C1867.43 649.655 1866.43 645.856 1865.37 642.712C1864.45 639.966 1863.08 636.399 1860.9 633.748L1860.9 633.741C1858.06 630.285 1854.11 628.708 1851.32 627.884C1848.25 626.978 1844.77 626.471 1841.2 626.186C1834.02 625.612 1824.93 625.823 1814.74 626.516C1794.29 627.907 1767.86 631.364 1740.22 635.437C1722.2 638.093 1703.69 641.002 1685.86 643.806C1648.39 649.696 1613.87 655.123 1592.92 656.773L1592.91 656.774C1590.83 656.938 1588.76 657.114 1586.68 657.3C1636.85 646.893 1674.25 639.62 1702.5 634.128C1718.27 631.063 1731.18 628.553 1741.86 626.362C1759.26 622.793 1771.19 619.989 1779.55 616.896C1788.35 613.639 1794.24 609.687 1798.64 603.387C1801.55 599.232 1805.35 593.189 1804.94 585.612C1804.52 577.883 1799.96 571.501 1794.06 565.778C1782.4 554.484 1758.33 539.145 1715.48 513.718C1652.06 476.036 1542.81 435.787 1447.17 404.278C1351.21 372.66 1267.76 349.466 1255.28 346.025L1254.67 345.858M1822.94 1406.05L1254.67 345.858M1254.67 345.858L1254.05 345.764M1254.67 345.858L1254.05 345.764M1254.05 345.764C1161.45 331.87 1080.45 327.831 1016.33 327.831C976.877 327.831 943.709 329.279 917.983 330.724C909.073 331.224 901.159 331.716 894.227 332.147C880.846 332.979 871.12 333.583 864.935 333.583C832.532 333.583 811.6 340.475 795.955 349.372M1254.05 345.764L795.955 349.372M99.1874 1109.49C102.628 1105.59 105.776 1102.88 109.023 1100.08M99.1874 1109.49L109.023 1100.08M109.023 1100.08C110.365 1098.92 111.723 1097.76 113.126 1096.48M109.023 1100.08L113.126 1096.48M113.126 1096.48C117.177 1092.8 123.276 1086.82 123.246 1077.52L113.126 1096.48ZM795.955 349.372C788.286 353.733 782.117 358.451 776.894 362.525M795.955 349.372L776.894 362.525M776.894 362.525C776.513 362.822 776.139 363.114 775.772 363.401M776.894 362.525L775.772 363.401M775.772 363.401C770.913 367.195 767.202 370.093 763.329 372.296L775.772 363.401Z" stroke="#699BF7" stroke-width="21"/>
<path d="M1166.39 749.484C1137.75 738.011 1146.18 693.733 1157.09 704.398C1168.04 715.063 1173.11 726.506 1201.68 725.729C1230.29 724.92 1364.92 683.876 1370.77 706.855C1376.64 729.833 1442.25 753.589 1430.47 737.295C1418.75 721.002 1425.43 709.311 1436.34 693.733C1447.26 678.124 1457.36 669.045 1418.75 664.132C1380 659.25 1369.93 673.989 1369.06 681.358C1368.22 688.789 1243.75 703.528 1221.83 706.855C1200.03 710.088 1194.96 710.959 1189.06 702.75C1183.21 694.542 1183.99 672.341 1106.63 672.341C1029.27 672.341 1050.28 706.824 1059.52 718.359C1068.75 729.802 1041.02 734.777 994.782 740.467C948.484 746.25 511.959 811.92 494.297 813.537C476.605 815.185 432.11 787.294 407.67 800.478C383.293 813.537 395.886 830.825 367.248 834.899C354.686 836.671 190.978 860.333 165.45 864.5C82.9271 877.777 235.069 871.372 286.374 866.49C337.678 861.515 421.973 864.096 438.826 847.678C455.679 831.261 483.073 836.796 507.512 837.324C531.828 837.822 1030.1 751.163 1058.68 746.282C1087.32 741.369 1087.32 775.012 1114.21 782.413C1141.14 789.751 1194.96 761.02 1166.39 749.484ZM658.721 925.319C584.252 906.228 479.341 938.814 445.947 1033.28C437.613 1056.81 433.54 1084.18 435.748 1115.61C446.911 1273.38 686.55 1224.44 731.138 1115.61C762.543 1039.12 765.342 990.026 727.936 957.812C712.171 944.224 690.095 933.373 658.721 925.319ZM1166.76 983.931C1145.56 1014.99 1136.01 1049.85 1149.97 1086.04C1170.59 1139.34 1235.73 1170.84 1303.51 1170.84C1397.98 1170.84 1498.25 1066.39 1473.69 1013.94C1407.4 872.398 1204.23 929.144 1166.76 983.931ZM817.393 1351.99C804.053 1418.09 869.91 1448.63 937.694 1448.63C1032.16 1448.63 1101.96 1385.54 1077.43 1333.08C1011.11 1191.58 833.623 1271.67 817.393 1351.99ZM377.292 1337.25C298.935 1337.25 241.008 1388.21 261.374 1430.5C316.41 1544.74 463.608 1480.13 477.103 1415.26C488.172 1361.94 433.54 1337.25 377.292 1337.25ZM1661.84 1159.24C1588.42 1159.24 1534.13 1222.14 1553.2 1274.41C1604.75 1415.42 1742.74 1335.63 1755.37 1255.6C1765.72 1189.71 1714.51 1159.24 1661.84 1159.24ZM1729.81 801.628C1695.79 729.864 1531.65 734.155 1515.39 814.439C1502.01 880.513 1567.87 911.11 1635.66 911.11C1730.12 911.11 1754.59 853.928 1729.81 801.628ZM1358.64 610.837C1453.1 610.837 1528.29 595.788 1503.51 543.457C1469.49 471.693 1320.37 473.216 1265.7 541.063C1223.45 593.58 1290.89 610.837 1358.64 610.837ZM707.01 719.385C801.473 719.385 876.688 704.336 851.907 652.005C817.89 580.241 668.733 581.765 614.102 649.611C571.814 702.128 639.256 719.385 707.01 719.385ZM980.51 526.604C1074.97 526.604 1131.75 505.305 1097.11 458.913C1053.39 400.27 953.179 423.062 887.571 456.861C827.685 487.706 912.726 526.604 980.51 526.604Z" fill="#699BF7"/>
</svg>
