<svg width="1660" height="1630" viewBox="0 0 1660 1630" fill="none" xmlns="http://www.w3.org/2000/svg">
<path d="M906.481 16.4531L906.484 16.453C932.048 15.826 968.499 28.5881 1009.77 51.1818C1050.41 73.4242 1093.44 103.918 1131.44 135.82L1131.45 135.824L1131.46 135.829C1145.47 147.57 1158.64 159.172 1170.9 170.378C996.009 182.697 819.863 191.19 634.967 185.021C641.994 178.183 649.272 171.253 656.837 164.248L656.844 164.242C697.904 126.172 744.648 89.2841 789.438 61.8123C834.809 33.9841 875.988 17.1948 906.481 16.4531ZM1516.12 281.275L1516.14 281.333L1516.16 281.391C1518.66 289.104 1519.92 295.126 1520.24 300.234C1150.65 417.621 732.483 415.485 313.104 323.025C308.597 313.278 308.178 305.979 309.672 298.166C311.599 289.461 318.105 277.032 332.809 261.464C707.88 307.117 1037.04 281.292 1361.56 255.83C1407.9 252.194 1454.15 248.566 1500.43 245.154C1507.29 258.702 1512.79 270.742 1516.12 281.275ZM1635.4 1596.37C1594.37 1598.36 1542.22 1600.9 1489.5 1599.04L1489.47 1599.03L1489.45 1599.03C1455.05 1597.93 1421.31 1593.88 1393.82 1588.06C1380.07 1585.16 1368.12 1581.85 1358.55 1578.36C1348.7 1574.77 1342.44 1571.36 1339.19 1568.7L1339.12 1568.63L1339.04 1568.57L1325.85 1558.02L1319.72 1553.11L1312.11 1555.06L1296.1 1559.16C1296.07 1559.16 1296.04 1559.17 1296 1559.18C969.67 1638.22 673.586 1607.45 345.844 1545.44C345.82 1545.43 345.797 1545.43 345.773 1545.42L332.748 1542.82L326.561 1541.58L321.232 1544.96L309.932 1552.11C271.118 1576.68 205.561 1599.83 143.735 1609.38C113.264 1614.09 83.7798 1614.7 59.791 1612.6C47.7968 1611.55 37.4023 1609.84 29.0829 1607.72C25.2654 1606.75 22.0819 1605.74 19.4862 1604.76C22.6815 1597.55 29.7474 1585.9 41.1014 1573.35L41.1078 1573.34L41.1143 1573.33C55.2189 1557.7 74.8081 1541.96 95.3871 1529.42C116.145 1516.77 136.607 1508.17 152.325 1505.61L152.417 1505.6L152.51 1505.58L184.798 1499.93L199.716 1497.32L197.691 1482.31L193.322 1449.92C193.322 1449.92 193.321 1449.91 193.321 1449.91C169.119 1269.73 199.607 1102.23 247.852 935.624C268.766 863.402 292.928 791.623 317.368 719.015C321.145 707.797 324.928 696.559 328.706 685.297C355.363 605.842 381.763 525.294 403.72 442.748C763.541 508.479 1122.92 509.067 1453.31 422.991C1593.87 765.236 1562.91 1097.5 1495.74 1428.54L1495.73 1428.55L1488.95 1462.08L1485.8 1477.69L1501.43 1480.67L1533.41 1486.78C1533.81 1486.97 1534.51 1487.31 1535.54 1487.85C1537.71 1488.99 1540.7 1490.68 1544.24 1492.9C1551.32 1497.35 1560.28 1503.73 1569.01 1511.77C1586.94 1528.64 1606.15 1551.08 1621.38 1572.83C1626.97 1581.14 1631.64 1589.16 1635.4 1596.37ZM1204.56 991.995C1204.56 1184.56 1081.09 1336.41 928.816 1359.6L934.708 1245.29C992.351 1236.27 1033.06 1202.19 1059.92 1164.96C1088.6 1125.21 1102.5 1080.6 1105.24 1055.09L1107.11 1037.66H1089.58C1069.8 1037.66 1038.84 1042.94 1006.59 1055.61C985.374 1063.94 963.072 1075.66 942.768 1091.66L944.865 1051.98C1002.33 1042.8 1042.87 1008.71 1069.67 971.538C1098.3 931.829 1112.24 887.395 1115.38 862.068L1117.55 844.568L1099.92 844.381C1079.87 844.168 1048.86 849.375 1016.65 861.94C995.436 870.217 973.163 881.898 952.877 897.819L954.782 860.827C991.085 848.59 1016.76 822.771 1033.82 796.331C1052.49 767.391 1061.85 736.207 1063.8 717.057L1065.58 699.705H1048.14C1030.61 699.705 1002.1 705.359 973.819 718.971C952.625 729.171 930.71 744.254 913.529 765.675C898.763 742.353 878.449 724.909 858.281 712.461C831.4 695.868 803.325 687.239 785.596 685.466L768.07 683.714L768.28 701.326C768.497 719.585 774.362 750.223 788.948 780.103C802.25 807.349 823.512 835.362 855.895 852.184L853.686 893.478C835.029 875.33 813.927 861.262 793.586 850.716C762.778 834.743 732.557 826.251 713.016 824.127L695.421 822.215L695.565 839.913C695.775 865.771 705.056 911.573 729.497 954.071C752.383 993.864 789.307 1031.93 845.585 1046.96L843.492 1086.25C824.923 1068.31 803.964 1054.37 783.735 1043.89C753.074 1028.02 722.944 1019.52 703.202 1017.4L685.625 1015.51L685.769 1033.19C685.979 1059.05 695.262 1104.76 719.651 1147.2C742.492 1186.95 779.328 1225.01 835.443 1240.2L829.5 1356.37C685.417 1324.54 571.463 1177.04 571.463 991.995C571.463 782.269 717.51 621.192 888.014 621.192C1058.52 621.192 1204.56 782.269 1204.56 991.995ZM1303.88 991.995C1303.88 737.084 1122.07 521.875 888.014 521.875C653.962 521.875 472.147 737.084 472.147 991.995C472.147 1246.91 653.962 1462.12 888.014 1462.12C1122.07 1462.12 1303.88 1246.91 1303.88 991.995Z" stroke="#699BF7" stroke-width="31.5"/>
</svg>
