<svg width="1929" height="1929" viewBox="0 0 1929 1929" fill="none" xmlns="http://www.w3.org/2000/svg">
<path d="M401.875 1125.25L466.496 1577.44C478.07 1658.62 507.006 1687.87 593.569 1687.87H803.75M401.875 1125.25H723.375M401.875 1125.25C297.146 1076.7 241.125 945.531 241.125 830.595C241.125 707.139 323.911 601.526 441.259 557.561C453.205 553.07 463.513 545.07 470.828 534.613C478.144 524.155 482.126 511.73 482.25 498.968C482.25 397.294 572.27 314.829 683.188 314.829C736.878 314.829 788.479 340.71 839.195 309.524C913.249 264.428 998.359 240.751 1085.06 241.125C1329.24 241.125 1527.12 422.531 1527.12 646.376C1527.12 747.327 1687.88 774.493 1687.88 904.219C1687.88 1006.86 1630.65 1100.33 1527.12 1125.25M803.75 1687.87L723.375 1125.25M803.75 1687.87H1125.25M723.375 1125.25H1205.62M1527.12 1125.25H1205.62M1527.12 1125.25L1462.5 1577.6C1450.29 1663.2 1417.41 1687.87 1335.43 1687.87H1125.25M1205.62 1125.25L1125.25 1687.87" stroke="white" stroke-width="34.5" stroke-linecap="round" stroke-linejoin="round"/>
</svg>
