<svg width="1990" height="1990" viewBox="0 0 1990 1990" fill="none" xmlns="http://www.w3.org/2000/svg">
<path d="M746.25 895.699C765.976 895.699 784.894 887.863 798.842 873.915C812.79 859.966 820.626 841.048 820.626 821.323C820.626 801.597 812.79 782.679 798.842 768.731C784.894 754.782 765.976 746.946 746.25 746.946C726.524 746.946 707.606 754.782 693.658 768.731C679.71 782.679 671.874 801.597 671.874 821.323C671.874 841.048 679.71 859.966 693.658 873.915C707.606 887.863 726.524 895.699 746.25 895.699ZM1116.69 1020.37C1116.69 1040.1 1108.85 1059.02 1094.9 1072.96C1080.96 1086.91 1062.04 1094.75 1042.31 1094.75C1022.59 1094.75 1003.67 1086.91 989.72 1072.96C975.772 1059.02 967.936 1040.1 967.936 1020.37C967.936 1000.65 975.772 981.729 989.72 967.78C1003.67 953.832 1022.59 945.996 1042.31 945.996C1062.04 945.996 1080.96 953.832 1094.9 967.78C1108.85 981.729 1116.69 1000.65 1116.69 1020.37ZM746.648 1344.05C756.461 1344.05 766.178 1342.11 775.244 1338.36C784.31 1334.6 792.547 1329.1 799.486 1322.16C806.425 1315.22 811.929 1306.98 815.685 1297.92C819.44 1288.85 821.373 1279.13 821.373 1269.32C821.373 1259.51 819.44 1249.79 815.685 1240.73C811.929 1231.66 806.425 1223.42 799.486 1216.48C792.547 1209.54 784.31 1204.04 775.244 1200.28C766.178 1196.53 756.461 1194.6 746.648 1194.6C726.83 1194.6 707.823 1202.47 693.81 1216.48C679.796 1230.5 671.924 1249.5 671.924 1269.32C671.924 1289.14 679.796 1308.15 693.81 1322.16C707.823 1336.17 726.83 1344.05 746.648 1344.05ZM398 393.622C398 284.669 487.053 192.433 599.985 199.398C1042.46 226.661 1430.51 375.513 1734.48 665.754C1820.75 748.041 1803.74 882.465 1714.29 951.12C1575.09 1058.58 1434.95 1164.81 1293.9 1269.82V1442.95C1293.9 1514.29 1238.68 1592.2 1144.65 1592.2C1127.81 1592.18 1111.09 1589.5 1095.1 1584.24V1592.5C1095.1 1663.44 1039.78 1740.85 945.549 1740.85C870.526 1740.85 821.074 1691.5 803.662 1636.38C749.136 1677.17 689.535 1721.55 636.303 1761.15C537.798 1834.48 398 1764.13 398 1641.75V393.622ZM1095.1 1442.95C1095.1 1468.72 1114.4 1492.7 1144.65 1492.7C1175 1492.7 1194.4 1468.52 1194.4 1442.95V1244.55C1194.4 1236.7 1196.27 1228.98 1199.83 1221.99C1203.39 1215 1208.55 1208.96 1214.9 1204.35C1292.51 1148.03 1424.64 1047.64 1541.65 958.185C1273.7 703.166 898.087 551.827 497.5 548.643V1641.65C497.527 1650.86 500.108 1659.87 504.956 1667.7C509.803 1675.52 516.727 1681.85 524.956 1685.98C533.186 1690.1 542.399 1691.86 551.569 1691.06C560.74 1690.26 569.509 1686.94 576.901 1681.45C655.108 1623.14 747.345 1554.49 816.597 1502.55C823.988 1497.01 832.777 1493.63 841.979 1492.8C851.181 1491.97 860.432 1493.72 868.695 1497.85C876.959 1501.98 883.909 1508.33 888.766 1516.19C893.624 1524.05 896.197 1533.11 896.197 1542.35V1592.5C896.197 1617.07 915.102 1641.45 945.549 1641.45C952.068 1641.61 958.553 1640.46 964.62 1638.07C970.687 1635.68 976.212 1632.1 980.869 1627.53C985.527 1622.97 989.221 1617.51 991.734 1611.5C994.246 1605.48 995.526 1599.02 995.498 1592.5V1442.95C995.498 1429.75 1000.74 1417.1 1010.07 1407.77C1019.4 1398.44 1032.05 1393.2 1045.25 1393.2C1058.44 1393.2 1071.1 1398.44 1080.43 1407.77C1089.76 1417.1 1095.1 1429.75 1095.1 1442.95ZM1653.49 872.316C1699.76 836.795 1703.24 773.513 1665.63 737.593C1381.36 466.257 1016.89 324.668 593.816 298.599C542.275 295.415 497.5 337.802 497.5 393.622V449.143C928.037 452.426 1333.6 616.999 1621.55 896.893L1653.49 872.316Z" stroke="#699BF7" stroke-width="21"/>
</svg>
