<svg width="1929" height="1929" viewBox="0 0 1929 1929" fill="none" xmlns="http://www.w3.org/2000/svg">
<path d="M284.367 1366.38H888.144M1492 1366.38H1693.26M1007.5 401.875C1060.79 401.875 1111.9 423.045 1149.58 460.728C1187.27 498.411 1208.44 549.521 1208.44 602.812C1208.44 656.104 1187.27 707.214 1149.58 744.897C1111.9 782.58 1060.79 803.75 1007.5 803.75C954.209 803.75 903.099 782.58 865.416 744.897C827.733 707.214 806.563 656.104 806.563 602.812C806.563 549.521 827.733 498.411 865.416 460.728C903.099 423.045 954.209 401.875 1007.5 401.875ZM1007.5 401.875C1020.92 361.688 1079.84 273.275 1208.44 241.125" stroke="#699BF7" stroke-width="44" stroke-linecap="round" stroke-linejoin="round"/>
<path d="M805.357 644.205C327.207 824.969 134.387 908.398 163.643 968.197C322.706 1043.35 614.949 1024.06 913.944 1012.81C996.248 1009.75 1077.43 1050.58 1096.07 1131.52C1109.26 1188.67 1112.79 1238.58 1138.75 1270.25C1153.62 1288.41 1178.94 1294.52 1201.61 1288.65C1262.69 1272.58 1288.01 1204.34 1318.15 1084.5C1324.02 1061.19 1332.38 1036.03 1355.04 1028.24C1456.31 993.033 1768.09 1070.51 1768.09 927.768C1763.03 779.075 1708.93 686.402 1535.08 548.559C1479.34 504.065 1408.78 482.404 1337.68 487.956C1263.25 493.904 1228.61 503.63 1206.51 522.678" stroke="#699BF7" stroke-width="44" stroke-linecap="round" stroke-linejoin="round"/>
<path d="M161.795 963.938L240.16 1309.95C280.348 1491.12 300.442 1581.7 366.51 1634.83C432.658 1687.88 525.411 1687.88 710.917 1687.88H1400.37C1538.78 1687.88 1607.98 1687.88 1653.96 1646.24C1699.93 1604.61 1706.68 1535.73 1720.27 1397.88L1767.69 935.083" stroke="#699BF7" stroke-width="44" stroke-linecap="round" stroke-linejoin="round"/>
</svg>
